<mxfile host="app.diagrams.net" agent="Mozilla/5.0 (Windows NT 10.0; Win64; x64) AppleWebKit/537.36 (KHTML, like Gecko) Chrome/128.0.0.0 Safari/537.36" version="24.7.7">
  <diagram name="Page-1" id="MLTtc94f-sjYJQNmcqrU">
    <mxGraphModel dx="794" dy="384" grid="1" gridSize="10" guides="1" tooltips="1" connect="1" arrows="1" fold="1" page="1" pageScale="1" pageWidth="850" pageHeight="1100" math="0" shadow="0">
      <root>
        <mxCell id="0" />
        <mxCell id="1" parent="0" />
        <mxCell id="0fbaRATL9cyGBz52kpNf-3" value="Patient" style="shape=umlActor;verticalLabelPosition=bottom;verticalAlign=top;html=1;outlineConnect=0;" vertex="1" parent="1">
          <mxGeometry x="50" y="20" width="20" height="40" as="geometry" />
        </mxCell>
        <mxCell id="0fbaRATL9cyGBz52kpNf-7" value="Login" style="rounded=1;whiteSpace=wrap;html=1;" vertex="1" parent="1">
          <mxGeometry x="120" y="50" width="80" height="30" as="geometry" />
        </mxCell>
        <mxCell id="0fbaRATL9cyGBz52kpNf-11" value="Dashboard" style="rounded=1;whiteSpace=wrap;html=1;" vertex="1" parent="1">
          <mxGeometry x="210" y="50" width="80" height="30" as="geometry" />
        </mxCell>
        <mxCell id="0fbaRATL9cyGBz52kpNf-12" value="Medical Info" style="rounded=1;whiteSpace=wrap;html=1;" vertex="1" parent="1">
          <mxGeometry x="300" y="50" width="80" height="30" as="geometry" />
        </mxCell>
        <mxCell id="0fbaRATL9cyGBz52kpNf-13" value="Message" style="rounded=1;whiteSpace=wrap;html=1;" vertex="1" parent="1">
          <mxGeometry x="390" y="50" width="80" height="30" as="geometry" />
        </mxCell>
        <mxCell id="0fbaRATL9cyGBz52kpNf-14" value="" style="endArrow=none;dashed=1;html=1;dashPattern=1 3;strokeWidth=2;rounded=0;" edge="1" parent="1" source="0fbaRATL9cyGBz52kpNf-19">
          <mxGeometry width="50" height="50" relative="1" as="geometry">
            <mxPoint x="60" y="320" as="sourcePoint" />
            <mxPoint x="60" y="80" as="targetPoint" />
          </mxGeometry>
        </mxCell>
        <mxCell id="0fbaRATL9cyGBz52kpNf-15" value="" style="endArrow=none;dashed=1;html=1;dashPattern=1 3;strokeWidth=2;rounded=0;" edge="1" parent="1" source="0fbaRATL9cyGBz52kpNf-32">
          <mxGeometry width="50" height="50" relative="1" as="geometry">
            <mxPoint x="159.5" y="320" as="sourcePoint" />
            <mxPoint x="159.5" y="80" as="targetPoint" />
          </mxGeometry>
        </mxCell>
        <mxCell id="0fbaRATL9cyGBz52kpNf-16" value="" style="endArrow=none;dashed=1;html=1;dashPattern=1 3;strokeWidth=2;rounded=0;" edge="1" parent="1" source="0fbaRATL9cyGBz52kpNf-35">
          <mxGeometry width="50" height="50" relative="1" as="geometry">
            <mxPoint x="250" y="450" as="sourcePoint" />
            <mxPoint x="249.5" y="80" as="targetPoint" />
          </mxGeometry>
        </mxCell>
        <mxCell id="0fbaRATL9cyGBz52kpNf-17" value="" style="endArrow=none;dashed=1;html=1;dashPattern=1 3;strokeWidth=2;rounded=0;" edge="1" parent="1" source="0fbaRATL9cyGBz52kpNf-41">
          <mxGeometry width="50" height="50" relative="1" as="geometry">
            <mxPoint x="339.5" y="319" as="sourcePoint" />
            <mxPoint x="339.5" y="79" as="targetPoint" />
          </mxGeometry>
        </mxCell>
        <mxCell id="0fbaRATL9cyGBz52kpNf-18" value="" style="endArrow=none;dashed=1;html=1;dashPattern=1 3;strokeWidth=2;rounded=0;" edge="1" parent="1" source="0fbaRATL9cyGBz52kpNf-43">
          <mxGeometry width="50" height="50" relative="1" as="geometry">
            <mxPoint x="425" y="316" as="sourcePoint" />
            <mxPoint x="425" y="76" as="targetPoint" />
          </mxGeometry>
        </mxCell>
        <mxCell id="0fbaRATL9cyGBz52kpNf-20" value="" style="endArrow=none;dashed=1;html=1;dashPattern=1 3;strokeWidth=2;rounded=0;" edge="1" parent="1" target="0fbaRATL9cyGBz52kpNf-19">
          <mxGeometry width="50" height="50" relative="1" as="geometry">
            <mxPoint x="60" y="444.66668701171875" as="sourcePoint" />
            <mxPoint x="60" y="80" as="targetPoint" />
          </mxGeometry>
        </mxCell>
        <mxCell id="0fbaRATL9cyGBz52kpNf-19" value="" style="rounded=1;whiteSpace=wrap;html=1;fillColor=#dae8fc;strokeColor=#6c8ebf;arcSize=0;" vertex="1" parent="1">
          <mxGeometry x="50" y="81" width="21" height="298" as="geometry" />
        </mxCell>
        <mxCell id="0fbaRATL9cyGBz52kpNf-29" value="" style="endArrow=classic;html=1;rounded=0;entryX=0;entryY=0.5;entryDx=0;entryDy=0;" edge="1" parent="1" target="0fbaRATL9cyGBz52kpNf-32">
          <mxGeometry relative="1" as="geometry">
            <mxPoint x="70" y="113" as="sourcePoint" />
            <mxPoint x="160" y="114" as="targetPoint" />
          </mxGeometry>
        </mxCell>
        <mxCell id="0fbaRATL9cyGBz52kpNf-30" value="Login" style="edgeLabel;resizable=0;html=1;;align=center;verticalAlign=middle;" connectable="0" vertex="1" parent="0fbaRATL9cyGBz52kpNf-29">
          <mxGeometry relative="1" as="geometry">
            <mxPoint y="10" as="offset" />
          </mxGeometry>
        </mxCell>
        <mxCell id="0fbaRATL9cyGBz52kpNf-48" value="Login&amp;nbsp;&lt;div&gt;success&lt;/div&gt;" style="edgeLabel;resizable=0;html=1;;align=center;verticalAlign=middle;" connectable="0" vertex="1" parent="0fbaRATL9cyGBz52kpNf-29">
          <mxGeometry relative="1" as="geometry">
            <mxPoint x="95" y="22" as="offset" />
          </mxGeometry>
        </mxCell>
        <mxCell id="0fbaRATL9cyGBz52kpNf-33" value="" style="endArrow=none;dashed=1;html=1;dashPattern=1 3;strokeWidth=2;rounded=0;" edge="1" parent="1" target="0fbaRATL9cyGBz52kpNf-32">
          <mxGeometry width="50" height="50" relative="1" as="geometry">
            <mxPoint x="160" y="440" as="sourcePoint" />
            <mxPoint x="159.5" y="80" as="targetPoint" />
          </mxGeometry>
        </mxCell>
        <mxCell id="0fbaRATL9cyGBz52kpNf-32" value="" style="rounded=0;whiteSpace=wrap;html=1;fillColor=#dae8fc;strokeColor=#6c8ebf;arcSize=0;" vertex="1" parent="1">
          <mxGeometry x="150" y="94" width="20" height="38" as="geometry" />
        </mxCell>
        <mxCell id="0fbaRATL9cyGBz52kpNf-49" style="rounded=0;orthogonalLoop=1;jettySize=auto;html=1;exitX=0.1;exitY=0.67;exitDx=0;exitDy=0;exitPerimeter=0;dashed=1;" edge="1" parent="1" source="0fbaRATL9cyGBz52kpNf-35">
          <mxGeometry relative="1" as="geometry">
            <mxPoint x="71" y="304" as="targetPoint" />
          </mxGeometry>
        </mxCell>
        <mxCell id="0fbaRATL9cyGBz52kpNf-42" value="" style="endArrow=none;dashed=1;html=1;dashPattern=1 3;strokeWidth=2;rounded=0;" edge="1" parent="1" target="0fbaRATL9cyGBz52kpNf-41">
          <mxGeometry width="50" height="50" relative="1" as="geometry">
            <mxPoint x="340" y="450" as="sourcePoint" />
            <mxPoint x="339.5" y="79" as="targetPoint" />
          </mxGeometry>
        </mxCell>
        <mxCell id="0fbaRATL9cyGBz52kpNf-41" value="" style="rounded=1;whiteSpace=wrap;html=1;fillColor=#dae8fc;strokeColor=#6c8ebf;arcSize=0;" vertex="1" parent="1">
          <mxGeometry x="330" y="160" width="20" height="140" as="geometry" />
        </mxCell>
        <mxCell id="0fbaRATL9cyGBz52kpNf-46" value="" style="endArrow=none;dashed=1;html=1;dashPattern=1 3;strokeWidth=2;rounded=0;" edge="1" parent="1" target="0fbaRATL9cyGBz52kpNf-43">
          <mxGeometry width="50" height="50" relative="1" as="geometry">
            <mxPoint x="425" y="450" as="sourcePoint" />
            <mxPoint x="425" y="76" as="targetPoint" />
          </mxGeometry>
        </mxCell>
        <mxCell id="0fbaRATL9cyGBz52kpNf-60" style="edgeStyle=orthogonalEdgeStyle;rounded=0;orthogonalLoop=1;jettySize=auto;html=1;exitX=1;exitY=0.75;exitDx=0;exitDy=0;dashed=1;" edge="1" parent="1" source="0fbaRATL9cyGBz52kpNf-43">
          <mxGeometry relative="1" as="geometry">
            <mxPoint x="425" y="384" as="targetPoint" />
            <mxPoint x="455" y="320" as="sourcePoint" />
            <Array as="points">
              <mxPoint x="433" y="320" />
              <mxPoint x="483" y="320" />
              <mxPoint x="483" y="384" />
            </Array>
          </mxGeometry>
        </mxCell>
        <mxCell id="0fbaRATL9cyGBz52kpNf-43" value="" style="rounded=1;whiteSpace=wrap;html=1;fillColor=#dae8fc;strokeColor=#6c8ebf;arcSize=0;" vertex="1" parent="1">
          <mxGeometry x="418" y="271" width="15" height="70" as="geometry" />
        </mxCell>
        <mxCell id="0fbaRATL9cyGBz52kpNf-47" style="rounded=0;orthogonalLoop=1;jettySize=auto;html=1;entryX=0.067;entryY=0.044;entryDx=0;entryDy=0;entryPerimeter=0;" edge="1" parent="1" target="0fbaRATL9cyGBz52kpNf-35">
          <mxGeometry relative="1" as="geometry">
            <mxPoint x="170" y="120" as="sourcePoint" />
            <mxPoint x="230" y="119" as="targetPoint" />
          </mxGeometry>
        </mxCell>
        <mxCell id="0fbaRATL9cyGBz52kpNf-50" value="Logout" style="text;html=1;align=center;verticalAlign=middle;resizable=0;points=[];autosize=1;strokeColor=none;fillColor=none;" vertex="1" parent="1">
          <mxGeometry x="160" y="300" width="60" height="30" as="geometry" />
        </mxCell>
        <mxCell id="0fbaRATL9cyGBz52kpNf-56" value="" style="endArrow=none;dashed=1;html=1;dashPattern=1 3;strokeWidth=2;rounded=0;" edge="1" parent="1" target="0fbaRATL9cyGBz52kpNf-35">
          <mxGeometry width="50" height="50" relative="1" as="geometry">
            <mxPoint x="250" y="450" as="sourcePoint" />
            <mxPoint x="249.5" y="80" as="targetPoint" />
          </mxGeometry>
        </mxCell>
        <mxCell id="0fbaRATL9cyGBz52kpNf-59" style="rounded=0;orthogonalLoop=1;jettySize=auto;html=1;exitX=0.867;exitY=0.686;exitDx=0;exitDy=0;entryX=0;entryY=0.5;entryDx=0;entryDy=0;exitPerimeter=0;" edge="1" parent="1" source="0fbaRATL9cyGBz52kpNf-35" target="0fbaRATL9cyGBz52kpNf-43">
          <mxGeometry relative="1" as="geometry" />
        </mxCell>
        <mxCell id="0fbaRATL9cyGBz52kpNf-35" value="" style="rounded=1;whiteSpace=wrap;html=1;fillColor=#dae8fc;strokeColor=#6c8ebf;arcSize=0;" vertex="1" parent="1">
          <mxGeometry x="240" y="107" width="20" height="293" as="geometry" />
        </mxCell>
        <mxCell id="0fbaRATL9cyGBz52kpNf-61" style="edgeStyle=orthogonalEdgeStyle;rounded=0;orthogonalLoop=1;jettySize=auto;html=1;exitX=1;exitY=0.25;exitDx=0;exitDy=0;entryX=0.067;entryY=0.143;entryDx=0;entryDy=0;entryPerimeter=0;" edge="1" parent="1" source="0fbaRATL9cyGBz52kpNf-35" target="0fbaRATL9cyGBz52kpNf-41">
          <mxGeometry relative="1" as="geometry" />
        </mxCell>
        <mxCell id="0fbaRATL9cyGBz52kpNf-62" value="view info" style="text;html=1;align=center;verticalAlign=middle;resizable=0;points=[];autosize=1;strokeColor=none;fillColor=none;" vertex="1" parent="1">
          <mxGeometry x="255" y="178" width="70" height="30" as="geometry" />
        </mxCell>
        <mxCell id="0fbaRATL9cyGBz52kpNf-63" value="recieve message" style="text;html=1;align=center;verticalAlign=middle;resizable=0;points=[];autosize=1;strokeColor=none;fillColor=none;" vertex="1" parent="1">
          <mxGeometry x="375" y="341" width="110" height="30" as="geometry" />
        </mxCell>
      </root>
    </mxGraphModel>
  </diagram>
</mxfile>
